<?xml version="1.0" encoding="UTF-8" standalone="no"?>
<!DOCTYPE svg PUBLIC "-//W3C//DTD SVG 1.1//EN" "http://www.w3.org/Graphics/SVG/1.1/DTD/svg11.dtd">
<svg version="1.1" xmlns="http://www.w3.org/2000/svg" xmlns:xlink="http://www.w3.org/1999/xlink" preserveAspectRatio="xMidYMid meet" viewBox="0 0 512 512" width="512" height="512"><defs><path d="M503.51 251.83C497.81 289.15 462.94 314.79 425.61 309.09C430.78 275.26 459.92 251.03 493.12 251.03C496.54 251.03 500.02 251.29 503.51 251.83Z" id="a5BWNeHUKS"></path><path d="M437.68 231.85C436.56 226.82 436.02 221.8 436.02 216.85C436.02 185.55 457.64 157.33 489.46 150.2C497.71 187.05 474.52 223.61 437.68 231.85Z" id="b2sVGGsl0w"></path><path d="M482.06 357.98C458.14 387.19 415.06 391.48 385.85 367.56C386.02 367.35 386.19 367.15 386.37 366.95C387.85 365.38 389.3 363.8 390.72 362.2C415.29 337.9 454.73 335.6 482.06 357.97C482.06 357.98 482.06 357.98 482.06 357.98Z" id="c2A8cF72hf"></path><path d="M420.21 164.66C411.66 152.64 407.54 138.8 407.54 125.08C407.54 103.71 417.54 82.66 436.28 69.32C458.16 100.09 450.98 142.77 420.21 164.66Z" id="a33IWDzwzl"></path><path d="M426.3 295.99C390.06 285.39 369.27 247.42 379.86 211.18C409.7 219.91 429.06 247.19 429.06 276.77C429.06 283.12 428.17 289.58 426.3 295.99Z" id="e1waIqDoYb"></path><path d="M338.88 142.68C346.42 140.01 354.13 138.74 361.7 138.74C389.85 138.74 416.21 156.26 426.14 184.31C390.54 196.9 351.48 178.27 338.88 142.68Z" id="a5jDV9upaA"></path><path d="M327.8 407.92C330.99 406.54 334.15 405.06 337.27 403.47C345.12 400.48 353.28 399.05 361.36 399.05C385.21 399.05 408.38 411.55 420.95 433.81C388.08 452.38 346.38 440.78 327.8 407.92Z" id="b1jMOgSk75"></path><path d="M375.9 340.81C375.9 359.66 368.16 378.42 352.96 391.93C327.88 363.71 330.41 320.5 358.62 295.41C370.21 308.43 375.9 324.65 375.9 340.81Z" id="c18GRQK1Nz"></path><path d="M184.2 407.92C165.63 440.78 123.93 452.38 91.05 433.81C103.62 411.55 126.78 399.05 150.64 399.05C158.72 399.05 166.86 400.48 174.72 403.46C177.84 405.04 181.01 406.53 184.2 407.92Z" id="b2gMIAMoQ0"></path><path d="M159.03 391.93C143.85 378.42 136.1 359.66 136.1 340.81C136.1 324.65 141.8 308.43 153.38 295.41C181.6 320.5 184.13 363.71 159.03 391.93Z" id="a2ZzafEiY3"></path><path d="M173.12 142.68C160.53 178.27 121.46 196.9 85.86 184.31C95.79 156.26 122.16 138.74 150.3 138.74C157.88 138.74 165.57 140.01 173.12 142.68Z" id="b1SyauuMFO"></path><path d="M85.71 295.99C83.83 289.58 82.94 283.12 82.94 276.76C82.94 247.18 102.3 219.91 132.14 211.18C142.74 247.42 121.95 285.39 85.71 295.99Z" id="e295rWnjAX"></path><path d="M126.15 367.56C96.93 391.48 53.86 387.19 29.94 357.98C29.94 357.98 29.94 357.97 29.94 357.97C57.31 335.57 96.83 337.91 121.39 362.32C122.74 363.85 124.14 365.36 125.56 366.86C125.77 367.08 125.96 367.32 126.15 367.56Z" id="bbRH58bhy"></path><path d="M91.79 164.66C61.03 142.77 53.84 100.09 75.73 69.32C94.47 82.66 104.46 103.71 104.46 125.08C104.46 138.8 100.34 152.64 91.79 164.66Z" id="a5zDt1mGT4"></path><path d="M8.48 251.83C11.98 251.29 15.45 251.03 18.88 251.03C52.08 251.03 81.22 275.26 86.39 309.09C49.06 314.79 14.19 289.15 8.48 251.83Z" id="b2NIEJ1fh"></path><path d="M74.32 231.85C37.47 223.61 14.29 187.05 22.54 150.2C54.36 157.32 75.98 185.55 75.98 216.85C75.98 221.8 75.45 226.82 74.32 231.85Z" id="d5ltY7EEXy"></path><path d="M481.45 303.43C497.99 291.27 508.8 273.4 511.9 253.11C512.24 250.89 511.68 248.62 510.35 246.8C509.02 244.99 507.02 243.78 504.79 243.44C481.98 239.96 459.96 246.95 443.58 260.8C444.27 253.51 444.54 246.18 444.39 238.86C482.9 227.58 506.63 188.05 497.74 148.35C497.25 146.15 495.91 144.24 494.01 143.03C492.1 141.83 489.8 141.43 487.61 141.92C463.69 147.27 444.89 163.32 435.06 183.89C433.35 178.67 431.41 173.51 429.24 168.43C443.66 156.65 453.23 140.27 456.36 121.73C459.77 101.49 455.09 81.13 443.19 64.41C440.47 60.59 435.17 59.69 431.35 62.41C411.75 76.36 400.68 97.89 399.25 120.22C396.1 116.54 392.79 112.96 389.31 109.48C385.99 106.16 380.62 106.16 377.31 109.48C373.99 112.79 373.99 118.16 377.31 121.48C381.87 126.04 386.11 130.8 390.05 135.73C373.35 129.09 354.28 128.22 336.04 134.68C333.92 135.43 332.18 136.99 331.21 139.02C330.25 141.05 330.12 143.39 330.87 145.51C337.72 164.86 351.7 180.38 370.23 189.22C380.73 194.23 391.97 196.75 403.26 196.75C409.08 196.75 414.9 196.07 420.64 194.73C424.81 209.09 427.07 223.9 427.42 238.75C417.5 221.34 401.52 208.67 382.24 203.04C377.74 201.72 373.03 204.3 371.72 208.8C365.95 228.5 368.21 249.27 378.07 267.28C386.76 283.15 400.44 295.19 417.06 301.77C409.53 322.41 397.92 341.88 382.23 358.92C383.29 354.5 383.98 349.96 384.25 345.33C385.46 324.84 378.6 305.11 364.96 289.77C361.85 286.26 356.48 285.95 352.98 289.06C323.29 315.46 318.93 359.9 341.71 391.44C315.93 406.36 286.58 414.31 256 414.31C225.42 414.31 196.06 406.36 170.29 391.44C180.64 377.14 185.71 359.86 184.66 342C183.46 321.5 174.35 302.7 159.01 289.06C155.51 285.95 150.14 286.26 147.03 289.77C129.66 309.3 124.1 335.31 129.82 358.98C114.1 341.93 102.47 322.44 94.93 301.77C111.55 295.19 125.24 283.15 133.93 267.27C143.78 249.27 146.04 228.5 140.28 208.8C139.65 206.64 138.18 204.82 136.21 203.74C134.23 202.66 131.91 202.4 129.75 203.03C109.85 208.85 94.1 222.08 84.57 238.82C84.91 223.95 87.18 209.11 91.35 194.72C97.09 196.06 102.92 196.75 108.73 196.75C120.02 196.75 131.27 194.23 141.76 189.22C160.29 180.38 174.27 164.86 181.12 145.51C182.68 141.09 180.37 136.24 175.95 134.67C157.71 128.22 138.63 129.09 121.93 135.74C125.88 130.81 130.12 126.04 134.69 121.47C138 118.16 138 112.79 134.69 109.47C131.37 106.16 126 106.16 122.69 109.47C119.21 112.95 115.89 116.54 112.74 120.22C111.32 97.89 100.25 76.36 80.64 62.41C76.82 59.69 71.52 60.58 68.81 64.4C56.9 81.13 52.23 101.49 55.64 121.73C58.76 140.26 68.33 156.65 82.76 168.42C80.58 173.51 78.64 178.67 76.93 183.89C67.11 163.32 48.31 147.27 24.39 141.92C22.2 141.42 19.89 141.82 17.99 143.03C16.09 144.24 14.75 146.15 14.25 148.34C5.36 188.05 29.09 227.58 67.61 238.86C67.46 246.18 67.72 253.5 68.42 260.79C52.04 246.95 30.01 239.96 7.2 243.44C4.98 243.78 2.98 244.99 1.64 246.8C0.31 248.62 -0.25 250.89 0.09 253.11C5.89 291.09 38.72 318.37 76.02 318.37C78.37 318.37 80.75 318.24 83.14 318.02C85.87 324.31 88.97 330.47 92.41 336.49C69.51 330.62 44.21 335.32 24.56 351.41C20.93 354.38 20.4 359.73 23.37 363.35C38.54 381.88 60.63 391.48 82.9 391.48C97.63 391.48 112.43 387.27 125.35 378.67C130.02 383.16 134.88 387.39 139.92 391.35C117.05 394.58 95.87 408.01 83.66 429.63C82.55 431.59 82.27 433.91 82.87 436.08C83.48 438.24 84.92 440.08 86.88 441.19C98.57 447.8 111.48 451.16 124.56 451.16C131.47 451.16 138.42 450.22 145.26 448.32C162.58 443.5 177.34 433.04 187.53 418.52C209.06 426.9 232.19 431.28 256 431.28C279.8 431.28 302.93 426.9 324.46 418.52C334.65 433.04 349.41 443.51 366.73 448.32C373.57 450.22 380.52 451.16 387.44 451.16C400.51 451.16 413.43 447.79 425.12 441.19C429.2 438.89 430.64 433.71 428.33 429.63C416.12 408.01 394.94 394.58 372.07 391.35C377.11 387.4 381.97 383.16 386.64 378.67C399.57 387.27 414.37 391.48 429.1 391.48C451.36 391.48 473.45 381.88 488.62 363.35C490.05 361.61 490.73 359.38 490.5 357.14C490.28 354.9 489.18 352.84 487.43 351.41C467.78 335.32 442.48 330.62 419.58 336.49C423.02 330.47 426.12 324.31 428.85 318.02C431.27 318.25 433.69 318.38 436.09 318.38C452.34 318.38 468.11 313.23 481.45 303.43ZM493.05 259.52C489.27 271.59 481.78 282.12 471.4 289.76C461.01 297.39 448.73 301.4 436.07 301.4C439.85 289.33 447.34 278.8 457.73 271.16C468.12 263.53 480.4 259.52 493.05 259.52ZM482.5 161.17C484.24 187.1 468.83 211.39 444.64 220.88C443.77 208.26 446.93 195.73 453.83 184.85C460.73 173.96 470.72 165.77 482.5 161.17ZM439.62 118.91C437.48 131.62 431.45 143.05 422.37 151.86C410.72 128.63 415.5 100.26 434.12 82.14C439.81 93.43 441.76 106.2 439.62 118.91ZM350.6 148.27C376.13 143.45 402.1 155.83 414.41 178.72C401.99 181.08 389.17 179.45 377.54 173.9C365.91 168.35 356.58 159.42 350.6 148.27ZM97.58 178.71C103.56 167.56 112.89 158.63 124.53 153.08C136.16 147.53 148.97 145.89 161.4 148.26C149.09 171.15 123.11 183.54 97.58 178.71ZM77.88 82.13C86.96 90.94 92.99 102.37 95.13 115.08C97.28 127.79 95.32 140.56 89.63 151.86C80.55 143.05 74.52 131.62 72.38 118.91C70.24 106.2 72.19 93.43 77.88 82.13ZM29.5 161.17C53.69 170.66 69.09 194.95 67.36 220.87C43.17 211.39 27.76 187.1 29.5 161.17ZM18.95 259.53C44.94 259.57 68.12 276.61 75.92 301.4C63.27 301.4 50.99 297.39 40.61 289.76C30.22 282.12 22.73 271.6 18.95 259.53ZM167.72 342.99C168.48 355.86 165.16 368.34 158.28 378.96C141.73 358.92 140.04 330.2 154.14 308.37C162.21 318.11 166.97 330.12 167.72 342.99ZM125.89 222.58C129.29 248.34 115.48 273.57 91.94 284.59C90.27 272.05 92.61 259.35 98.8 248.04C104.99 236.74 114.43 227.92 125.89 222.58ZM113.22 366.27C90.83 379.47 62.21 376.62 42.87 359.27C65.25 346.07 93.88 348.92 113.22 366.27ZM103.57 430.33C119.51 410.11 146.87 402.37 171.02 411.15C171.22 411.25 171.43 411.35 171.63 411.46C163.82 421.37 153.11 428.52 140.72 431.97C128.3 435.42 115.4 434.81 103.57 430.33ZM386.1 222.58C409.63 233.6 423.45 258.83 420.05 284.6C408.59 279.25 399.15 270.43 392.96 259.13C386.77 247.82 384.43 235.12 386.1 222.58ZM357.86 308.37C364.75 318.99 368.07 331.47 367.31 344.34C366.56 357.21 361.8 369.22 353.73 378.96C346.84 368.34 343.52 355.86 344.28 342.99C345.03 330.12 349.79 318.11 357.86 308.37ZM340.38 411.45C340.58 411.35 340.78 411.25 340.98 411.15C365.13 402.37 392.49 410.11 408.42 430.32C384.15 439.48 356.47 431.8 340.38 411.45ZM398.79 366.27C418.12 348.92 446.75 346.07 469.13 359.27C449.79 376.61 421.17 379.46 398.79 366.27Z" id="c1fuajnzci"></path><path d="M287.01 320C276.6 309.59 263.63 302.98 250.46 301.39C237.12 299.8 225.16 303.48 216.79 311.8C208.43 320.13 204.75 332.09 206.38 345.47C207.97 358.64 214.62 371.61 224.99 382.02C235.4 392.43 248.37 399.04 261.54 400.63C263.59 400.88 265.64 401.01 267.61 401.01C278.48 401.01 288.14 397.29 295.17 390.22C303.57 381.85 307.25 369.89 305.62 356.55C304.03 343.38 297.38 330.41 287.01 320Z" id="f1s7thUiGf"></path><path d="M279.23 327.55C271.43 319.75 261.71 314.79 251.83 313.6C241.83 312.41 232.86 315.17 226.59 321.41C220.32 327.65 217.56 336.61 218.78 346.65C219.97 356.53 224.96 366.24 232.73 374.05C240.54 381.86 250.26 386.81 260.14 388C261.67 388.19 263.21 388.29 264.68 388.29C272.84 388.29 280.08 385.5 285.35 380.2C291.65 373.93 294.41 364.96 293.19 354.96C291.99 345.08 287.01 335.36 279.23 327.55Z" id="b3t98QUs1i"></path><path d="M240.01 321.09C237.03 321.85 233.99 323.63 231.42 326.21C225.84 331.82 224.3 339.03 227.91 342.67C229.22 343.98 231.04 344.61 233.05 344.61C236.56 344.61 240.79 342.7 244.34 339.12C246.91 336.58 248.73 333.54 249.48 330.56C250.26 327.33 249.7 324.54 247.88 322.69C246.03 320.88 243.24 320.31 240.01 321.09Z" id="n61hjszQow"></path><path d="M284.25 358.75C283.87 350.41 279.7 341.63 272.74 334.7C272.12 334.08 272.12 333.1 272.74 332.48C273.37 331.85 274.34 331.85 274.97 332.48C282.46 339.97 286.98 349.47 287.38 358.59C287.42 359.47 286.76 360.19 285.88 360.22C285.85 360.26 285.85 360.26 285.82 360.26C284.97 360.26 284.28 359.6 284.25 358.75Z" id="b5fxCcLfk"></path><path d="M227.94 342.67C224.3 339.03 225.84 331.82 231.42 326.21C233.99 323.63 237.03 321.82 239.98 321.09C243.21 320.31 246.03 320.88 247.85 322.69C249.67 324.51 250.26 327.33 249.45 330.56C248.73 333.54 246.91 336.58 244.37 339.15C240.79 342.7 236.59 344.61 233.08 344.61C231.04 344.61 229.25 343.98 227.94 342.67ZM240.73 324.14C238.35 324.73 235.81 326.27 233.64 328.43C229.44 332.63 227.84 338.15 230.13 340.44C232.42 342.73 237.94 341.13 242.14 336.93C244.3 334.77 245.84 332.23 246.44 329.81C246.75 328.59 247.03 326.3 245.65 324.92C244.87 324.14 243.77 323.89 242.74 323.89C241.98 323.89 241.26 324.01 240.73 324.14Z" id="h7ecmJ9eC"></path></defs><g><g><g><g><use xlink:href="#a5BWNeHUKS" opacity="1" fill="#9ad14b" fill-opacity="1"></use><g><use xlink:href="#a5BWNeHUKS" opacity="1" fill-opacity="0" stroke="#000000" stroke-width="1" stroke-opacity="0"></use></g></g><g><use xlink:href="#b2sVGGsl0w" opacity="1" fill="#90bc42" fill-opacity="1"></use><g><use xlink:href="#b2sVGGsl0w" opacity="1" fill-opacity="0" stroke="#000000" stroke-width="1" stroke-opacity="0"></use></g></g><g><use xlink:href="#c2A8cF72hf" opacity="1" fill="#90bc42" fill-opacity="1"></use><g><use xlink:href="#c2A8cF72hf" opacity="1" fill-opacity="0" stroke="#000000" stroke-width="1" stroke-opacity="0"></use></g></g><g><use xlink:href="#a33IWDzwzl" opacity="1" fill="#9ad14b" fill-opacity="1"></use><g><use xlink:href="#a33IWDzwzl" opacity="1" fill-opacity="0" stroke="#000000" stroke-width="1" stroke-opacity="0"></use></g></g><g><use xlink:href="#e1waIqDoYb" opacity="1" fill="#9ad14b" fill-opacity="1"></use><g><use xlink:href="#e1waIqDoYb" opacity="1" fill-opacity="0" stroke="#000000" stroke-width="1" stroke-opacity="0"></use></g></g><g><use xlink:href="#a5jDV9upaA" opacity="1" fill="#90bc42" fill-opacity="1"></use><g><use xlink:href="#a5jDV9upaA" opacity="1" fill-opacity="0" stroke="#000000" stroke-width="1" stroke-opacity="0"></use></g></g><g><use xlink:href="#b1jMOgSk75" opacity="1" fill="#9ad14b" fill-opacity="1"></use><g><use xlink:href="#b1jMOgSk75" opacity="1" fill-opacity="0" stroke="#000000" stroke-width="1" stroke-opacity="0"></use></g></g><g><use xlink:href="#c18GRQK1Nz" opacity="1" fill="#9ad14b" fill-opacity="1"></use><g><use xlink:href="#c18GRQK1Nz" opacity="1" fill-opacity="0" stroke="#000000" stroke-width="1" stroke-opacity="0"></use></g></g><g><use xlink:href="#b2gMIAMoQ0" opacity="1" fill="#9ad14b" fill-opacity="1"></use><g><use xlink:href="#b2gMIAMoQ0" opacity="1" fill-opacity="0" stroke="#000000" stroke-width="1" stroke-opacity="0"></use></g></g><g><use xlink:href="#a2ZzafEiY3" opacity="1" fill="#9ad14b" fill-opacity="1"></use><g><use xlink:href="#a2ZzafEiY3" opacity="1" fill-opacity="0" stroke="#000000" stroke-width="1" stroke-opacity="0"></use></g></g><g><use xlink:href="#b1SyauuMFO" opacity="1" fill="#90bc42" fill-opacity="1"></use><g><use xlink:href="#b1SyauuMFO" opacity="1" fill-opacity="0" stroke="#000000" stroke-width="1" stroke-opacity="0"></use></g></g><g><use xlink:href="#e295rWnjAX" opacity="1" fill="#9ad14b" fill-opacity="1"></use><g><use xlink:href="#e295rWnjAX" opacity="1" fill-opacity="0" stroke="#000000" stroke-width="1" stroke-opacity="0"></use></g></g><g><use xlink:href="#bbRH58bhy" opacity="1" fill="#90bc42" fill-opacity="1"></use><g><use xlink:href="#bbRH58bhy" opacity="1" fill-opacity="0" stroke="#000000" stroke-width="1" stroke-opacity="0"></use></g></g><g><use xlink:href="#a5zDt1mGT4" opacity="1" fill="#9ad14b" fill-opacity="1"></use><g><use xlink:href="#a5zDt1mGT4" opacity="1" fill-opacity="0" stroke="#000000" stroke-width="1" stroke-opacity="0"></use></g></g><g><use xlink:href="#b2NIEJ1fh" opacity="1" fill="#9ad14b" fill-opacity="1"></use><g><use xlink:href="#b2NIEJ1fh" opacity="1" fill-opacity="0" stroke="#000000" stroke-width="1" stroke-opacity="0"></use></g></g><g><use xlink:href="#d5ltY7EEXy" opacity="1" fill="#90bc42" fill-opacity="1"></use><g><use xlink:href="#d5ltY7EEXy" opacity="1" fill-opacity="0" stroke="#000000" stroke-width="1" stroke-opacity="0"></use></g></g><g><use xlink:href="#c1fuajnzci" opacity="1" fill="#333333" fill-opacity="1"></use><g><use xlink:href="#c1fuajnzci" opacity="1" fill-opacity="0" stroke="#000000" stroke-width="1" stroke-opacity="0"></use></g></g></g><g><use xlink:href="#f1s7thUiGf" opacity="1" fill="#333333" fill-opacity="1"></use><g><use xlink:href="#f1s7thUiGf" opacity="1" fill-opacity="0" stroke="#000000" stroke-width="1" stroke-opacity="0"></use></g></g><g><g><use xlink:href="#b3t98QUs1i" opacity="1" fill="#9ad14b" fill-opacity="1"></use><g><use xlink:href="#b3t98QUs1i" opacity="1" fill-opacity="0" stroke="#000000" stroke-width="1" stroke-opacity="0"></use></g></g><g><use xlink:href="#n61hjszQow" opacity="1" fill="#558b2f" fill-opacity="1"></use><g><use xlink:href="#n61hjszQow" opacity="1" fill-opacity="0" stroke="#000000" stroke-width="1" stroke-opacity="0"></use></g></g><g><use xlink:href="#b5fxCcLfk" opacity="1" fill="#333333" fill-opacity="1"></use><g><use xlink:href="#b5fxCcLfk" opacity="1" fill-opacity="0" stroke="#000000" stroke-width="9" stroke-opacity="0"></use></g></g><g><use xlink:href="#h7ecmJ9eC" opacity="1" fill="#333333" fill-opacity="1"></use><g><use xlink:href="#h7ecmJ9eC" opacity="1" fill-opacity="0" stroke="#000000" stroke-width="1" stroke-opacity="0"></use></g></g></g></g></g></svg>